{
.appVersion = "3129";
.formatVersion = 3;
DisplayStrings = (
"Hohnimohn in mollum
Illustration
Hnnandgloves",
onnonoonn,
nnhnn,
nnann,
"Hohndnngnnbloveds
nnennonn.n,n-en",
abdeghilmnopqrnnrnsuv
);
axes = (
{
name = Weight;
tag = wght;
},
{
name = Width;
tag = wdth;
}
);
date = "2018-07-04 15:03:59 +0000";
familyName = Textschrift;
fontMaster = (
{
axesValues = (
100,
100
);
customParameters = (
{
name = "Alignment Zones";
value = (
{
pos = 740;
size = 16;
}
);
}
);
iconName = Condensed;
id = "F44C9A4F-8A52-40AB-9242-208FE858938B";
metricValues = (
{
pos = 800;
},
{
over = 16;
pos = 700;
},
{
over = 15;
pos = 500;
},
{
over = -16;
},
{
over = -16;
pos = -200;
}
);
name = Regular;
}
);
glyphs = (
{
glyphname = H;
lastChange = "2018-07-04 20:34:02 +0000";
layers = (
{
hints = (
{
name = _corner.leftSerif;
origin = (0,2);
scale = (1.2,1);
type = Corner;
},
{
name = _corner.leftSerif;
options = 1;
origin = (0,3);
scale = (-1.2,1);
type = Corner;
},
{
name = _corner.leftSerif;
options = 1;
origin = (0,1);
scale = (1.2,-1);
type = Corner;
},
{
name = _corner.leftSerif;
origin = (0,0);
scale = (-1.2,-1);
type = Corner;
},
{
name = _corner.leftSerif;
origin = (1,0);
scale = (-1.2,-1);
type = Corner;
},
{
name = _corner.leftSerif;
options = 1;
origin = (1,1);
scale = (1.2,-1);
type = Corner;
},
{
name = _corner.leftSerif;
origin = (1,2);
scale = (1.2,1);
type = Corner;
},
{
name = _corner.leftSerif;
options = 1;
origin = (1,3);
scale = (-1.2,1);
type = Corner;
}
);
layerId = "F44C9A4F-8A52-40AB-9242-208FE858938B";
shapes = (
{
closed = 1;
nodes = (
(232,700,l),
(132,700,l),
(132,0,l),
(232,0,l)
);
},
{
closed = 1;
nodes = (
(668,700,l),
(568,700,l),
(568,0,l),
(668,0,l)
);
},
{
closed = 1;
nodes = (
(193,325,l),
(604,325,l),
(604,385,l),
(193,385,l)
);
}
);
width = 800;
}
);
unicode = 72;
},
{
glyphname = I;
lastChange = "2018-07-04 20:34:13 +0000";
layers = (
{
hints = (
{
name = _corner.leftSerif;
origin = (0,0);
scale = (-1.2,-1);
type = Corner;
},
{
name = _corner.leftSerif;
options = 1;
origin = (0,1);
scale = (1.2,-1);
type = Corner;
},
{
name = _corner.leftSerif;
origin = (0,2);
scale = (1.2,1);
type = Corner;
},
{
name = _corner.leftSerif;
options = 1;
origin = (0,3);
scale = (-1.2,1);
type = Corner;
}
);
layerId = "F44C9A4F-8A52-40AB-9242-208FE858938B";
shapes = (
{
closed = 1;
nodes = (
(232,700,l),
(132,700,l),
(132,0,l),
(232,0,l)
);
}
);
width = 364;
}
);
metricLeft = H;
metricRight = H;
unicode = 73;
},
{
glyphname = a;
lastChange = "2022-06-01 16:22:26 +0000";
layers = (
{
background = {
hints = (
{
name = _corner.leftSerif;
options = 1;
place = (202, 0);
scale = (-1,1);
type = Corner;
},
{
name = _corner.leftSerif;
place = (402, 0);
type = Corner;
},
{
name = _corner.leftSerif;
options = 1;
place = (502, 0);
scale = (-1,1);
type = Corner;
},
{
name = _cap.left;
place = (202, 0);
type = Cap;
},
{
name = _corner.leftSerif;
place = (102, 0);
type = Corner;
},
{
name = _cap.left;
place = (335, 0);
type = Cap;
}
);
shapes = (
{
closed = 1;
nodes = (
(251,-14,o),
(304,31,o),
(341,70,c),
(347,26,o),
(372,-10,o),
(430,-10,cs),
(473,-10,o),
(509,14,o),
(547,78,c),
(519,98,l),
(498,69,o),
(479,61,o),
(466,61,cs),
(450,61,o),
(441,71,o),
(441,91,cs),
(441,347,ls),
(441,438,o),
(391,514,o),
(274,514,cs),
(147,514,o),
(72,432,o),
(72,360,cs),
(72,326,o),
(91,295,o),
(129,295,cs),
(156,295,o),
(177,311,o),
(177,337,cs),
(177,366,o),
(151,374,o),
(151,397,cs),
(151,427,o),
(192,454,o),
(247,454,cs),
(314,454,o),
(341,415,o),
(341,347,cs),
(341,122,l),
(300,81,o),
(258,55,o),
(213,55,cs),
(174,55,o),
(148,81,o),
(148,123,cs),
(148,190,o),
(220,234,o),
(360,234,c),
(360,279,l),
(161,279,o),
(51,220,o),
(51,112,cs),
(51,41,o),
(93,-14,o),
(180,-14,cs)
);
}
);
};
layerId = "F44C9A4F-8A52-40AB-9242-208FE858938B";
shapes = (
{
closed = 1;
nodes = (
(251,-14,o),
(306,33,o),
(343,72,c),
(349,28,o),
(372,-10,o),
(430,-10,cs),
(473,-10,o),
(509,11,o),
(547,75,c),
(540,85,o),
(530,92,o),
(519,95,c),
(498,66,o),
(479,58,o),
(466,58,cs),
(450,58,o),
(441,68,o),
(441,88,cs),
(441,347,ls),
(441,438,o),
(391,514,o),
(274,514,cs),
(147,514,o),
(72,432,o),
(72,360,cs),
(72,326,o),
(91,295,o),
(129,295,cs),
(156,295,o),
(177,311,o),
(177,337,cs),
(177,366,o),
(151,374,o),
(151,397,cs),
(151,427,o),
(192,454,o),
(247,454,cs),
(314,454,o),
(341,415,o),
(341,347,cs),
(341,122,l),
(300,81,o),
(258,55,o),
(213,55,cs),
(174,55,o),
(148,81,o),
(148,123,cs),
(148,190,o),
(220,234,o),
(360,234,c),
(360,279,l),
(161,279,o),
(51,220,o),
(51,112,cs),
(51,41,o),
(93,-14,o),
(180,-14,cs)
);
}
);
width = 550;
},
{
associatedMasterId = "F44C9A4F-8A52-40AB-9242-208FE858938B";
background = {
hints = (
{
name = _corner.leftSerif;
options = 1;
place = (202, 0);
scale = (-1,1);
type = Corner;
},
{
name = _corner.leftSerif;
place = (402, 0);
type = Corner;
},
{
name = _corner.leftSerif;
options = 1;
place = (502, 0);
scale = (-1,1);
type = Corner;
},
{
name = _cap.left;
place = (202, 0);
type = Cap;
},
{
name = _corner.leftSerif;
place = (102, 0);
type = Corner;
},
{
name = _cap.left;
origin = (0,3);
type = Cap;
}
);
shapes = (
{
closed = 1;
nodes = (
(242,-14,o),
(297,31,o),
(335,70,c),
(335,0,l),
(435,0,l),
(435,347,ls),
(435,438,o),
(384,514,o),
(256,514,cs),
(133,514,o),
(49,432,o),
(49,358,cs),
(49,324,o),
(67,293,o),
(105,293,cs),
(136,293,o),
(156,312,o),
(156,341,cs),
(156,367,o),
(135,380,o),
(135,397,cs),
(135,427,o),
(178,456,o),
(236,456,cs),
(307,456,o),
(335,415,o),
(335,347,cs),
(335,114,l),
(300,87,o),
(250,67,o),
(207,67,cs),
(162,67,o),
(135,90,o),
(135,132,cs),
(135,199,o),
(207,236,o),
(354,236,c),
(354,281,l),
(149,281,o),
(35,220,o),
(35,112,cs),
(35,41,o),
(79,-14,o),
(169,-14,cs)
);
}
);
};
hints = (
{
name = _cap.left;
origin = (0,3);
type = Cap;
}
);
layerId = "2E930B10-38BE-4873-981C-2E953DC5EFC2";
name = "8. März 21, 13:26";
shapes = (
{
closed = 1;
nodes = (
(245,-14,o),
(298,31,o),
(335,70,c),
(335,0,l),
(435,0,l),
(435,347,ls),
(435,438,o),
(385,514,o),
(268,514,cs),
(141,514,o),
(66,432,o),
(66,360,cs),
(66,326,o),
(85,295,o),
(123,295,cs),
(150,295,o),
(171,311,o),
(171,337,cs),
(171,366,o),
(145,374,o),
(145,397,cs),
(145,427,o),
(186,454,o),
(241,454,cs),
(308,454,o),
(335,415,o),
(335,347,cs),
(335,122,l),
(294,81,o),
(252,55,o),
(207,55,cs),
(168,55,o),
(142,81,o),
(142,123,cs),
(142,190,o),
(214,234,o),
(354,234,c),
(354,279,l),
(155,279,o),
(45,220,o),
(45,112,cs),
(45,41,o),
(87,-14,o),
(174,-14,cs)
);
}
);
width = 533;
}
);
unicode = 97;
},
{
glyphname = b;
lastChange = "2022-06-03 07:45:12 +0000";
layers = (
{
hints = (
{
name = _cap.left;
origin = (0,4);
type = Cap;
}
);
layerId = "F44C9A4F-8A52-40AB-9242-208FE858938B";
shapes = (
{
closed = 1;
nodes = (
(98,780,l),
(98,0,l),
(148,0,l),
(198,105,l),
(198,780,l)
);
},
{
ref = _part.bowl;
}
);
width = 606;
}
);
metricLeft = h;
metricRight = o;
unicode = 98;
},
{
glyphname = d;
lastChange = "2022-06-03 07:45:17 +0000";
layers = (
{
hints = (
{
name = _cap.left;
origin = (0,1);
type = Cap;
},
{
name = _cap.left;
origin = (0,3);
target = (0,0);
type = Cap;
}
);
layerId = "F44C9A4F-8A52-40AB-9242-208FE858938B";
shapes = (
{
closed = 1;
nodes = (
(408,780,l),
(408,0,l),
(508,0,l),
(508,780,l)
);
},
{
angle = 180;
pos = (606,500);
ref = _part.bowl;
}
);
width = 606;
}
);
metricLeft = o;
metricRight = n;
unicode = 100;
},
{
glyphname = e;
lastChange = "2022-06-03 07:45:24 +0000";
layers = (
{
background = {
shapes = (
{
ref = o;
}
);
};
layerId = "F44C9A4F-8A52-40AB-9242-208FE858938B";
shapes = (
{
closed = 1;
nodes = (
(391,-12,o),
(457,32,o),
(511,89,c),
(481,121,l),
(433,82,o),
(382,57,o),
(319,57,cs),
(216,57,o),
(163,147,o),
(163,262,cs),
(163,365,o),
(200,456,o),
(280,456,cs),
(365,456,o),
(414,365,o),
(406,267,c),
(468,315,l),
(110,315,l),
(110,259,l),
(514,259,l),
(514,413,o),
(433,512,o),
(293,512,cs),
(151,512,o),
(54,398,o),
(54,237,cs),
(54,97,o),
(150,-12,o),
(293,-12,cs)
);
}
);
width = 568;
}
);
metricLeft = o;
unicode = 101;
},
{
glyphname = g;
lastChange = "2022-06-01 16:21:30 +0000";
layers = (
{
background = {
shapes = (
{
closed = 1;
nodes = (
(394,195,o),
(474,262,o),
(474,353,cs),
(474,453,o),
(395,512,o),
(279,512,cs),
(166,512,o),
(84,450,o),
(84,353,cs),
(84,254,o),
(161,195,o),
(279,195,cs)
);
}
);
};
layerId = "F44C9A4F-8A52-40AB-9242-208FE858938B";
shapes = (
{
closed = 1;
nodes = (
(437,-212,o),
(535,-137,o),
(535,-32,cs),
(535,45,o),
(477,117,o),
(334,117,cs),
(304,117,o),
(251,110,o),
(225,110,cs),
(178,110,o),
(158,122,o),
(158,146,cs),
(158,169,o),
(180,189,o),
(230,208,c),
(219,240,l),
(131,207,o),
(86,175,o),
(86,115,cs),
(86,66,o),
(129,24,o),
(218,24,c),
(326,52,l),
(147,52,o),
(63,-17,o),
(63,-85,cs),
(63,-144,o),
(124,-212,o),
(288,-212,cs)
);
},
{
closed = 1;
nodes = (
(184,-162,o),
(142,-122,o),
(142,-76,cs),
(142,-41,o),
(170,26,o),
(326,26,cs),
(419,26,o),
(450,-17,o),
(450,-57,cs),
(450,-107,o),
(409,-162,o),
(288,-162,cs)
);
},
{
closed = 1;
nodes = (
(224,241,o),
(180,291,o),
(180,356,cs),
(180,416,o),
(210,464,o),
(274,464,cs),
(334,464,o),
(378,412,o),
(378,346,cs),
(378,278,o),
(343,241,o),
(287,241,cs)
);
},
{
closed = 1;
nodes = (
(390,195,o),
(476,258,o),
(476,344,cs),
(476,414,o),
(416,486,o),
(278,486,c),
(355,438,l),
(534,438,l),
(539,451,o),
(539,472,o),
(534,486,c),
(440,486,ls),
(368,486,o),
(342,512,o),
(271,512,cs),
(164,512,o),
(84,443,o),
(84,348,cs),
(84,262,o),
(152,195,o),
(274,195,cs)
);
}
);
width = 600;
}
);
unicode = 103;
},
{
glyphname = h;
lastChange = "2022-06-03 07:45:30 +0000";
layers = (
{
hints = (
{
name = _corner.leftSerif;
options = 1;
origin = (0,0);
scale = (-1,1);
type = Corner;
},
{
name = _corner.leftSerif;
origin = (0,8);
type = Corner;
},
{
name = _corner.leftSerif;
options = 1;
origin = (0,9);
scale = (-1,1);
type = Corner;
},
{
name = _cap.left;
origin = (0,17);
type = Cap;
},
{
name = _corner.leftSerif;
origin = (0,19);
type = Corner;
}
);
layerId = "F44C9A4F-8A52-40AB-9242-208FE858938B";
shapes = (
{
closed = 1;
nodes = (
(198,0,l),
(198,385,l),
(233,413,o),
(283,433,o),
(320,433,cs),
(377,433,o),
(398,396,o),
(398,314,cs),
(398,0,l),
(498,0,l),
(498,338,ls),
(498,447,o),
(454,514,o),
(364,514,cs),
(291,514,o),
(236,469,o),
(198,430,c),
(198,780,l),
(98,780,l),
(98,0,l)
);
}
);
width = 596;
}
);
metricLeft = "=|n";
metricRight = n;
unicode = 104;
},
{
glyphname = i;
lastChange = "2022-06-03 07:45:34 +0000";
layers = (
{
hints = (
{
name = _corner.leftSerif;
origin = (0,2);
type = Corner;
},
{
name = _corner.leftSerif;
options = 1;
origin = (0,3);
scale = (-1,1);
type = Corner;
},
{
name = _cap.left;
origin = (0,0);
type = Cap;
}
);
layerId = "F44C9A4F-8A52-40AB-9242-208FE858938B";
shapes = (
{
closed = 1;
nodes = (
(202,500,l),
(102,500,l),
(102,0,l),
(202,0,l)
);
},
{
closed = 1;
nodes = (
(183,643,o),
(212,671,o),
(212,710,cs),
(212,748,o),
(185,777,o),
(147,777,cs),
(109,777,o),
(79,748,o),
(79,710,cs),
(79,671,o),
(107,643,o),
(145,643,cs)
);
}
);
width = 300;
}
);
metricLeft = n;
metricRight = n;
unicode = 105;
},
{
glyphname = l;
lastChange = "2018-11-11 22:37:30 +0000";
layers = (
{
hints = (
{
name = _corner.leftSerif;
options = 1;
origin = (0,3);
scale = (-1,1);
type = Corner;
},
{
name = _corner.leftSerif;
origin = (0,2);
type = Corner;
},
{
name = _cap.left;
origin = (0,0);
type = Cap;
}
);
layerId = "F44C9A4F-8A52-40AB-9242-208FE858938B";
shapes = (
{
closed = 1;
nodes = (
(198,780,l),
(98,780,l),
(98,0,l),
(198,0,l)
);
}
);
width = 296;
}
);
metricLeft = h;
metricRight = n;
unicode = 108;
},
{
glyphname = m;
lastChange = "2022-06-03 07:45:44 +0000";
layers = (
{
background = {
shapes = (
{
ref = n;
}
);
};
hints = (
{
name = _corner.leftSerif;
options = 1;
origin = (0,0);
scale = (-1,1);
type = Corner;
},
{
name = _corner.leftSerif;
origin = (0,8);
type = Corner;
},
{
name = _corner.leftSerif;
options = 1;
origin = (0,9);
scale = (-1,1);
type = Corner;
},
{
name = _cap.left;
origin = (0,17);
type = Cap;
},
{
name = _corner.leftSerif;
origin = (0,19);
type = Corner;
},
{
name = _corner.leftSerif;
origin = (1,7);
type = Corner;
},
{
name = _corner.leftSerif;
options = 1;
origin = (1,8);
scale = (-1,1);
type = Corner;
}
);
layerId = "F44C9A4F-8A52-40AB-9242-208FE858938B";
shapes = (
{
closed = 1;
nodes = (
(202,0,l),
(202,385,l),
(237,413,o),
(287,433,o),
(324,433,cs),
(381,433,o),
(402,396,o),
(402,314,cs),
(402,0,l),
(502,0,l),
(502,338,ls),
(502,447,o),
(458,514,o),
(368,514,cs),
(295,514,o),
(240,469,o),
(202,430,c),
(202,500,l),
(102,500,l),
(102,0,l)
);
},
{
closed = 1;
nodes = (
(478,363,l),
(520,404,o),
(580,433,o),
(624,433,cs),
(681,433,o),
(702,396,o),
(702,314,cs),
(702,0,l),
(802,0,l),
(802,338,ls),
(802,447,o),
(758,514,o),
(668,514,cs),
(584,514,o),
(521,459,o),
(478,411,c)
);
}
);
width = 900;
}
);
metricLeft = n;
metricRight = n;
unicode = 109;
},
{
glyphname = n;
lastChange = "2022-06-03 07:45:51 +0000";
layers = (
{
hints = (
{
name = _corner.leftSerif;
origin = (0,19);
type = Corner;
},
{
name = _corner.leftSerif;
options = 1;
origin = (0,0);
scale = (-1,1);
type = Corner;
},
{
name = _corner.leftSerif;
origin = (0,8);
type = Corner;
},
{
name = _corner.leftSerif;
options = 1;
origin = (0,9);
scale = (-1,1);
type = Corner;
},
{
name = _cap.left;
origin = (0,17);
target = (0,18);
type = Cap;
}
);
layerId = "F44C9A4F-8A52-40AB-9242-208FE858938B";
shapes = (
{
closed = 1;
nodes = (
(202,0,l),
(202,385,l),
(237,413,o),
(287,433,o),
(324,433,cs),
(381,433,o),
(402,396,o),
(402,314,cs),
(402,0,l),
(502,0,l),
(502,338,ls),
(502,447,o),
(458,514,o),
(368,514,cs),
(295,514,o),
(240,469,o),
(202,430,c),
(202,500,l),
(102,500,l),
(102,0,l)
);
}
);
width = 600;
}
);
unicode = 110;
},
{
glyphname = o;
lastChange = "2022-06-03 07:45:55 +0000";
layers = (
{
background = {
shapes = (
{
closed = 1;
nodes = (
(439,-12,o),
(540,99,o),
(540,250,cs),
(540,410,o),
(436,512,o),
(294,512,cs),
(152,512,o),
(48,410,o),
(48,250,cs),
(48,91,o),
(149,-12,o),
(294,-12,cs)
);
},
{
closed = 1;
nodes = (
(214,36,o),
(167,125,o),
(158,240,cs),
(149,364,o),
(190,450,o),
(278,456,cs),
(366,463,o),
(420,381,o),
(429,260,cs),
(439,130,o),
(405,51,o),
(309,43,cs)
);
}
);
};
layerId = "F44C9A4F-8A52-40AB-9242-208FE858938B";
shapes = (
{
closed = 1;
nodes = (
(435,-12,o),
(534,99,o),
(534,250,cs),
(534,414,o),
(437,512,o),
(294,512,cs),
(155,512,o),
(54,410,o),
(54,250,cs),
(54,86,o),
(149,-12,o),
(294,-12,cs)
);
},
{
closed = 1;
nodes = (
(390,43,o),
(302,43,cs),
(205,43,o),
(163,152,o),
(163,271,cs),
(163,373,o),
(197,456,o),
(285,456,cs),
(382,456,o),
(425,346,o),
(425,222,cs),
(425,116,o)
);
}
);
width = 588;
},
{
associatedMasterId = "F44C9A4F-8A52-40AB-9242-208FE858938B";
background = {
shapes = (
{
closed = 1;
nodes = (
(445,-12,o),
(546,99,o),
(546,250,cs),
(546,410,o),
(442,512,o),
(300,512,cs),
(158,512,o),
(54,410,o),
(54,250,cs),
(54,91,o),
(155,-12,o),
(300,-12,cs)
);
},
{
closed = 1;
nodes = (
(220,36,o),
(173,125,o),
(164,240,cs),
(155,364,o),
(196,450,o),
(284,456,cs),
(372,463,o),
(426,381,o),
(435,260,cs),
(445,130,o),
(411,51,o),
(315,43,cs)
);
}
);
};
layerId = "E15619C2-211C-47C8-BFAB-2EF3FC8CE8F6";
name = "Mar 14 20, 11:44";
shapes = (
{
closed = 1;
nodes = (
(445,-12,o),
(546,99,o),
(546,250,cs),
(546,410,o),
(442,512,o),
(300,512,cs),
(158,512,o),
(54,410,o),
(54,250,cs),
(54,91,o),
(155,-12,o),
(300,-12,cs)
);
},
{
closed = 1;
nodes = (
(399,43,o),
(304,43,cs),
(206,43,o),
(163,153,o),
(163,273,cs),
(163,374,o),
(200,456,o),
(295,456,cs),
(393,456,o),
(437,344,o),
(437,219,cs),
(437,115,o)
);
}
);
width = 600;
}
);
unicode = 111;
},
{
glyphname = p;
lastChange = "2022-06-03 07:46:01 +0000";
layers = (
{
hints = (
{
name = _corner.leftSerif;
options = 1;
origin = (0,0);
scale = (-1,1);
type = Corner;
},
{
name = _cap.left;
origin = (0,1);
type = Cap;
},
{
name = _corner.leftSerif;
origin = (0,3);
type = Corner;
}
);
layerId = "F44C9A4F-8A52-40AB-9242-208FE858938B";
shapes = (
{
closed = 1;
nodes = (
(202,-200,l),
(202,500,l),
(102,500,l),
(102,-200,l)
);
},
{
pos = (4,0);
ref = _part.bowl;
}
);
width = 610;
}
);
metricLeft = n;
metricRight = o;
unicode = 112;
},
{
glyphname = q;
lastChange = "2022-06-01 16:22:26 +0000";
layers = (
{
hints = (
{
name = _corner.leftSerif;
options = 1;
origin = (0,0);
scale = (-1,1);
type = Corner;
},
{
name = _corner.leftSerif;
origin = (0,4);
type = Corner;
}
);
layerId = "F44C9A4F-8A52-40AB-9242-208FE858938B";
shapes = (
{
closed = 1;
nodes = (
(508,-200,l),
(508,500,l),
(467,506,l),
(408,422,l),
(408,-200,l)
);
},
{
angle = 180;
pos = (606,500);
ref = _part.bowl;
}
);
width = 606;
}
);
metricLeft = o;
metricRight = n;
unicode = 113;
},
{
glyphname = r;
lastChange = "2022-06-03 07:46:10 +0000";
layers = (
{
background = {
shapes = (
{
ref = n;
}
);
};
hints = (
{
name = _corner.leftSerif;
options = 1;
origin = (0,0);
scale = (-1.2,1);
type = Corner;
},
{
name = _cap.left;
origin = (0,17);
type = Cap;
},
{
name = _corner.leftSerif;
origin = (0,19);
type = Corner;
}
);
layerId = "F44C9A4F-8A52-40AB-9242-208FE858938B";
shapes = (
{
closed = 1;
nodes = (
(202,0,l),
(202,329,l),
(244,398,o),
(276,435,o),
(311,435,cs),
(352,435,o),
(352,400,o),
(392,400,cs),
(413,400,o),
(436,418,o),
(436,451,cs),
(436,489,o),
(401,514,o),
(355,514,cs),
(302,514,o),
(256,484,o),
(202,404,c),
(202,500,l),
(102,500,l),
(102,0,l)
);
}
);
width = 468;
}
);
metricLeft = n;
unicode = 114;
},
{
glyphname = u;
lastChange = "2022-06-03 07:46:14 +0000";
layers = (
{
hints = (
{
name = _cap.left;
origin = (0,17);
type = Cap;
},
{
name = _cap.left;
origin = (0,8);
target = (0,9);
type = Cap;
},
{
name = _cap.left;
origin = (0,19);
target = (0,0);
type = Cap;
}
);
layerId = "F44C9A4F-8A52-40AB-9242-208FE858938B";
shapes = (
{
closed = 1;
nodes = (
(398,500,l),
(398,114,l),
(363,87,o),
(313,67,o),
(276,67,cs),
(219,67,o),
(198,104,o),
(198,186,cs),
(198,498,l),
(98,498,l),
(98,162,ls),
(98,53,o),
(142,-14,o),
(232,-14,cs),
(305,-14,o),
(360,31,o),
(398,70,c),
(398,0,l),
(498,0,l),
(498,500,l)
);
}
);
width = 596;
}
);
metricLeft = "=|n";
metricRight = n;
unicode = 117;
},
{
glyphname = v;
lastChange = "2022-05-24 10:01:08 +0000";
layers = (
{
hints = (
{
name = _corner.leftSerif;
origin = (0,2);
scale = (-1,-1);
type = Corner;
},
{
name = _corner.leftSerif;
options = 1;
origin = (1,2);
scale = (1,-1);
type = Corner;
},
{
name = _corner.leftSerif;
origin = (1,1);
scale = (-1,-1);
type = Corner;
},
{
name = _corner.leftSerif;
options = 1;
origin = (0,3);
scale = (1,-1);
type = Corner;
}
);
layerId = "F44C9A4F-8A52-40AB-9242-208FE858938B";
shapes = (
{
closed = 1;
nodes = (
(315,-6,l),
(315,86,l),
(159,494,l),
(49,494,l),
(252,-6,l)
);
},
{
closed = 1;
nodes = (
(330,-6,l),
(523,494,l),
(459,494,l),
(266,-6,l)
);
}
);
width = 600;
}
);
unicode = 118;
},
{
glyphname = z;
lastChange = "2018-11-11 21:22:13 +0000";
layers = (
{
layerId = "F44C9A4F-8A52-40AB-9242-208FE858938B";
shapes = (
{
closed = 1;
nodes = (
(100,450,l),
(520,450,l),
(520,500,l),
(100,500,l)
);
},
{
closed = 1;
nodes = (
(100,0,l),
(520,0,l),
(520,50,l),
(100,50,l)
);
}
);
width = 600;
}
);
unicode = 122;
},
{
glyphname = period;
lastChange = "2022-06-01 15:59:15 +0000";
layers = (
{
layerId = "F44C9A4F-8A52-40AB-9242-208FE858938B";
shapes = (
{
closed = 1;
nodes = (
(166,-14,o),
(199,19,o),
(199,60,cs),
(199,101,o),
(166,134,o),
(125,134,cs),
(84,134,o),
(51,101,o),
(51,60,cs),
(51,19,o),
(84,-14,o),
(125,-14,cs)
);
}
);
width = 250;
}
);
unicode = 46;
},
{
glyphname = comma;
lastChange = "2022-06-01 16:04:35 +0000";
layers = (
{
background = {
shapes = (
{
closed = 1;
nodes = (
(143,-110,o),
(195,-40,o),
(195,33,cs),
(195,93,o),
(161,133,o),
(115,133,cs),
(76,133,o),
(47,103,o),
(47,69,cs),
(47,14,o),
(109,11,o),
(109,-33,cs),
(109,-62,o),
(79,-101,o),
(40,-132,c),
(63,-163,l)
);
}
);
};
layerId = "F44C9A4F-8A52-40AB-9242-208FE858938B";
shapes = (
{
closed = 1;
nodes = (
(143,-110,o),
(195,-40,o),
(195,33,cs),
(195,93,o),
(161,133,o),
(115,133,cs),
(76,133,o),
(47,103,o),
(47,69,cs),
(47,14,o),
(109,11,o),
(109,-33,cs),
(109,-62,o),
(79,-101,o),
(40,-132,c),
(43,-143,o),
(53,-157,o),
(63,-163,c)
);
}
);
width = 250;
}
);
unicode = 44;
},
{
glyphname = hyphen;
lastChange = "2022-06-01 16:06:04 +0000";
layers = (
{
layerId = "F44C9A4F-8A52-40AB-9242-208FE858938B";
shapes = (
{
closed = 1;
nodes = (
(303,222,l),
(303,314,l),
(30,314,l),
(30,222,l)
);
}
);
width = 333;
}
);
unicode = 45;
},
{
export = 0;
glyphname = _cap.ball;
lastChange = "2021-03-06 14:27:11 +0000";
layers = (
{
layerId = "F44C9A4F-8A52-40AB-9242-208FE858938B";
shapes = (
{
closed = 0;
nodes = (
(0,0,l),
(0,-39,o),
(25,-67,o),
(61,-67,cs),
(86,-67,o),
(110,-49,o),
(110,-20,cs),
(110,9,o),
(85,24,o),
(56,24,c)
);
}
);
width = 200;
}
);
},
{
export = 0;
glyphname = _cap.left;
lastChange = "2018-11-11 21:22:46 +0000";
layers = (
{
background = {
shapes = (
{
closed = 0;
nodes = (
(50,4,l),
(90,4,o),
(143,2,o),
(173,0,c),
(177,11,o),
(178,27,o),
(174,40,c),
(105,50,o),
(100,54,o),
(100,112,c)
);
}
);
};
layerId = "F44C9A4F-8A52-40AB-9242-208FE858938B";
shapes = (
{
closed = 0;
nodes = (
(0,204,l),
(0,132,o),
(-1,54,o),
(-2,-8,c),
(11,-16,l),
(53,-2,o),
(101,12,o),
(175,22,c),
(177,31,o),
(177,44,o),
(174,52,c),
(105,59,o),
(100,66,o),
(100,124,c)
);
}
);
width = 200;
}
);
},
{
export = 0;
glyphname = _corner.leftSerif;
lastChange = "2022-05-24 09:58:08 +0000";
layers = (
{
anchors = (
{
name = left;
pos = (0,52);
},
{
name = origin;
},
{
name = right;
pos = (50,0);
}
);
background = {
shapes = (
{
closed = 0;
nodes = (
(0,107,l),
(0,49,o),
(-5,45,o),
(-74,35,c),
(-78,22,o),
(-77,7,o),
(-73,-4,c),
(-43,-2,o),
(10,0,o),
(50,0,c)
);
}
);
};
layerId = "F44C9A4F-8A52-40AB-9242-208FE858938B";
shapes = (
{
closed = 0;
nodes = (
(0,101,l),
(0,43,o),
(-5,39,o),
(-74,29,c),
(-77,19,o),
(-77,6,o),
(-73,-4,c),
(-43,-2,o),
(10,0,o),
(50,0,c)
);
}
);
width = 100;
}
);
},
{
export = 0;
glyphname = _part.bowl;
lastChange = "2022-06-03 06:47:26 +0000";
layers = (
{
background = {
shapes = (
{
closed = 1;
nodes = (
(208,0,l),
(208,385,l),
(243,413,o),
(293,433,o),
(330,433,cs),
(417,433,o),
(449,372,o),
(449,238,cs),
(449,-76,l),
(549,-76,l),
(549,262,ls),
(549,418,o),
(492,514,o),
(374,514,cs),
(301,514,o),
(246,469,o),
(208,430,c),
(208,500,l),
(108,500,l),
(108,0,l)
);
}
